<svg xmlns="http://www.w3.org/2000/svg" viewBox="0 0 50 50">
    <path d="M38.14 3.137a3.93 3.93 0 0 0-2.796 1.18L20.77 19.132l-2.172 9.144 9.144-2.172.305-.304 14.512-14.27c1.562-1.523 1.578-4.07.039-5.61l-1.645-1.644a3.922 3.922 0 0 0-2.812-1.14zm.02 3.101c.207 0 .418.082.586.25l1.64 1.64a.8.8 0 0 1-.007 1.169h-.004L26.18 23.262l-3.371.804.8-3.355L37.58 6.5v-.008a.817.817 0 0 1 .581-.254zM9.375 6.25a6.248 6.248 0 0 0-6.25 6.25v25a6.248 6.248 0 0 0 6.25 6.25h25a6.248 6.248 0 0 0 6.25-6.25V17.82L37.5 20.89V37.5a3.124 3.124 0 0 1-3.125 3.125h-25A3.124 3.124 0 0 1 6.25 37.5v-25a3.124 3.124 0 0 1 3.125-3.125h16.621L29.07 6.25z"/>
</svg>