<svg xmlns="http://www.w3.org/2000/svg" viewBox="0 0 50 50">
    <path d="M43.1 0a4.84 4.84 0 0 0-3.44 1.45L21.72 19.69 19 31l11.3-2.72.38-.37 17.86-17.57a4.88 4.88 0 0 0 0-6.91l-2-2A4.83 4.83 0 0 0 43.11 0zm0 3.82a1 1 0 0 1 .72.31l2 2a1 1 0 0 1 0 1.39L28.38 24.78l-4.15 1 1-4.13L42.42 4.14a1 1 0 0 1 .72-.31zm-35.44 0A7.69 7.69 0 0 0 0 11.53v30.78A7.69 7.69 0 0 0 7.69 50h30.78a7.69 7.69 0 0 0 7.69-7.69V18.08l-3.85 3.78v20.45a3.85 3.85 0 0 1-3.84 3.85H7.69a3.85 3.85 0 0 1-3.85-3.84V11.53a3.85 3.85 0 0 1 3.85-3.85h20.46l3.78-3.85z"/>
</svg>