<svg xmlns="http://www.w3.org/2000/svg" viewBox="0 0 50 50">
    <path d="M20.3 3.125c-2.566 0-4.675 2.11-4.675 4.676v1.574H6.25V12.5h3.125v26.563c0 2.57 2.117 4.687 4.688 4.687h18.75c2.57 0 4.687-2.117 4.687-4.688V12.5h3.125V9.375H31.25V7.801c0-2.567-2.11-4.676-4.676-4.676zm0 3.125h6.274c.88 0 1.551.672 1.551 1.55v1.575H18.75V7.801c0-.88.672-1.551 1.55-1.551zm-7.8 6.25h21.875v26.563c0 .878-.684 1.562-1.563 1.562h-18.75a1.543 1.543 0 0 1-1.562-1.563zm3.125 3.125V37.5h3.125V15.625zm6.25 0V37.5H25V15.625zm6.25 0V37.5h3.125V15.625z"/>
</svg>